<?xml version="1.0" encoding="utf-8"?>
<!-- Generator: Adobe Illustrator 26.0.0, SVG Export Plug-In . SVG Version: 6.00 Build 0)  -->
<svg version="1.1" id="Layer_1" xmlns="http://www.w3.org/2000/svg" xmlns:xlink="http://www.w3.org/1999/xlink" x="0px" y="0px"
	 viewBox="0 0 146 85" style="enable-background:new 0 0 146 85;" xml:space="preserve">
<style type="text/css">
	.st0{fill:none;stroke:#000000;stroke-width:2.16;stroke-linecap:round;}
	.st1{fill:#333333;}
	.st2{fill:none;stroke:#000000;stroke-width:1.98;stroke-miterlimit:10;}
	.st3{fill:#F2B203;stroke:#000000;stroke-width:1.98;stroke-miterlimit:10;}
	.st4{fill:#004F32;stroke:#000000;stroke-width:1.98;stroke-miterlimit:10;}
	.st5{fill:#FF6666;stroke:#000000;stroke-width:1.98;stroke-miterlimit:10;}
	.st6{fill:#00AA6C;stroke:#000000;stroke-width:1.98;stroke-miterlimit:10;}
</style>
<line class="st0" x1="13" y1="83.1" x2="144.4" y2="83.1"/>
<line class="st0" x1="5.5" y1="83.1" x2="10.1" y2="83.1"/>
<line class="st0" x1="2.6" y1="83.1" x2="1.5" y2="83.1"/>
<path class="st1" d="M49.1,77.9c0,0.9-0.4,1.7-1,2.4s-1.5,1-2.4,1s-1.7-0.4-2.4-1s-1-1.5-1-2.4"/>
<path class="st2" d="M49.1,77.9c0,0.9-0.4,1.7-1,2.4s-1.5,1-2.4,1s-1.7-0.4-2.4-1s-1-1.5-1-2.4"/>
<path class="st1" d="M102.6,77.9c0,0.9-0.4,1.7-1,2.4s-1.5,1-2.4,1s-1.7-0.4-2.4-1s-1-1.5-1-2.4"/>
<path class="st2" d="M102.6,77.9c0,0.9-0.4,1.7-1,2.4s-1.5,1-2.4,1s-1.7-0.4-2.4-1s-1-1.5-1-2.4"/>
<path class="st3" d="M110.9,11.3H34c-3.6,0-6.5,2.9-6.5,6.5v53.6c0,3.6,2.9,6.5,6.5,6.5h76.9c3.6,0,6.5-2.9,6.5-6.5V17.8
	C117.4,14.2,114.5,11.3,110.9,11.3z"/>
<path class="st2" d="M79.1,3.5h3c0.3,0,0.5,0,0.8,0.1c0.2,0.1,0.5,0.2,0.6,0.4c0.2,0.2,0.3,0.4,0.4,0.6C84,5,84.1,5.2,84.1,5.5v5.8"
	/>
<path class="st2" d="M60.8,11.3V5.5c0-0.5,0.2-1,0.6-1.4c0.4-0.4,0.9-0.6,1.4-0.6h3"/>
<path class="st4" d="M79.1,6H65.8V1h13.3L79.1,6z"/>
<path class="st4" d="M54.9,77.9V11.3h-5V78L54.9,77.9L54.9,77.9z"/>
<path class="st4" d="M95.1,77.9V11.3h-5V78L95.1,77.9L95.1,77.9z"/>
<path class="st2" d="M37.4,11.3c0,2.7-1.1,5.2-2.9,7.1c-1.9,1.9-4.4,2.9-7.1,2.9l0,0"/>
<path class="st2" d="M107.4,11.3c0,2.7,1.1,5.2,2.9,7.1c1.9,1.9,4.4,2.9,7.1,2.9l0,0"/>
<path class="st2" d="M37.4,77.9c0-1.3-0.3-2.6-0.8-3.8c-0.5-1.2-1.2-2.3-2.2-3.2c-0.9-0.9-2-1.7-3.2-2.2s-2.5-0.8-3.8-0.8"/>
<path class="st2" d="M107.4,77.9c0-2.7,1.1-5.2,2.9-7.1c1.9-1.9,4.4-2.9,7.1-2.9"/>
<path class="st5" d="M106.5,61.1c3.7,0,6.7-3,6.7-6.7s-3-6.7-6.7-6.7s-6.7,3-6.7,6.7S102.8,61.1,106.5,61.1z"/>
<path class="st6" d="M98.3,41.9l-17.8-8.2L86,21.9l17.8,8.2L98.3,41.9z"/>
</svg>
